<svg xmlns="http://www.w3.org/2000/svg" viewBox="0 0 128 130" x="0px" y="0px"><g><path d="M96.888,72.338v-.029l-.007-.1-.022-.2c-.059-.547-.117-1.087-.168-1.627-.11-.884-.256-1.759-.416-2.628a1.049,1.049,0,0,1-.139-.029c-3.08-1.066-4.832,1.518-5.036,4.357a7.9,7.9,0,0,0,.54,4.029,3.075,3.075,0,0,0,2.81,1.912,4.943,4.943,0,0,0,1.679-1.868,6.655,6.655,0,0,0,.752-2.715,4.728,4.728,0,0,0,.014-.715l-.007-.358ZM111.3,39.508a25.768,25.768,0,0,1-.3,6.62,12.6,12.6,0,0,1-1.6,4.146c-.059.555-.124,1.117-.219,1.693-.095.394-.19.8-.285,1.2-.051.2-.1.409-.146.613-.066.2-.146.416-.219.621s-.146.416-.226.627c-.1.2-.19.416-.292.621a8.583,8.583,0,0,1-.723,1.233,6.451,6.451,0,0,1-2.379,1.956,8.1,8.1,0,0,1-2.956.7c-1.817.124-3.89-.036-5.35-.066a65.2,65.2,0,0,1,2.489,10.649,18.024,18.024,0,0,1,.16,3.489,8.885,8.885,0,0,1-.978,3.686,7.41,7.41,0,0,1-2.722,2.941,6.355,6.355,0,0,1-2.226.818,5.614,5.614,0,0,0-.153,1.759,2.76,2.76,0,0,1,1.386,3.634c1.767,1.759.066,4.453-2.087,5.409a.982.982,0,0,1-.744.27c-1.139-.029-.6,6.722-.533,7.525.219,2.518.022,7.225,2.89,8.269a1.1,1.1,0,0,1,.744.993,1.287,1.287,0,0,1,.059.306,8.281,8.281,0,0,1-.139,1.942,6.823,6.823,0,0,1,2.46,2.2,4.431,4.431,0,0,1,.306,3.43c1.6,2.416-.416,5.029-2.846,6.087-4.168,1.818-10.014,1.11-14.291.146-2.963-.664-16.845-4.306-10.817-9.014a4.8,4.8,0,0,1,4.1-5.715,1.08,1.08,0,0,1,.431-.153,17.652,17.652,0,0,1,.628-2.27.948.948,0,0,1,.671-.5c4.89-2.248,4.8-10.051,4.832-14.926a4.115,4.115,0,0,1-2.606-2.715,4.377,4.377,0,0,1-.628.065,3.821,3.821,0,0,1-2.109-.627,14.754,14.754,0,0,1-2.489-2.3c-.16-.168-.35-.351-.54-.533l-.5-.424a10.616,10.616,0,0,0-1.176-.781c-.846-.489-1.8-.9-2.824-1.445-.263-.138-.533-.277-.752-.416l-.657-.394c-.474-.284-.963-.562-1.416-.854-.927-.584-1.788-1.175-2.656-1.73A28.638,28.638,0,0,0,59.3,76.812c-.212-.1-.409-.2-.635-.306l-.708-.285-.358-.146-.051-.022c-.015-.007-.058-.022-.058-.022l-.176-.051-.708-.234a54.8,54.8,0,0,1-5.758-1.985,13.117,13.117,0,0,1-5.036-3.649,11.853,11.853,0,0,1-.869-1.212c-.241-.452-.489-.912-.73-1.357-.168-.475-.335-.942-.5-1.409-.132-.467-.227-.934-.329-1.394-.343-1.832-.438-3.576-.664-5.116a22.7,22.7,0,0,0-.452-2.307c-.234-.73-.409-1.452-.687-2.153-.489-1.408-1.087-2.766-1.605-4.08-.248-.62-.482-1.241-.7-1.846-7.248,1.481-21.261,7.138-22.954-3.971a36.754,36.754,0,0,1,.81-13.794A72.15,72.15,0,0,1,24.66,13.3a1.06,1.06,0,0,1,.19-.241.929.929,0,0,1,1-.671c8.773.481,17.327,2.9,26.151,2.678a.991.991,0,0,1,.153.015c.263-.358.526-.7.8-1.066.438-.606.847-1.233,1.285-1.89.445-.694.839-1.38,1.365-2.153.146-.19.262-.387.437-.584l.555-.6a4.9,4.9,0,0,1,1.5-.9,6.913,6.913,0,0,1,1.6-.387c.511-.051,1-.059,1.511-.088,2.014.051,3.926.372,5.751.365A9.511,9.511,0,0,0,71.9,6.5c.723-.386,1.518-.905,2.358-1.357a9.808,9.808,0,0,1,1.35-.613c.234-.08.46-.183.708-.248l.737-.154A6.61,6.61,0,0,1,78.51,4l.358.051.043.066A.84.84,0,0,0,79,4.059l.014-.03.081-.007.153.007.606.066c.409.051.905.175,1.335.27.409.139.825.248,1.2.416A13.41,13.41,0,0,1,86.21,7.212c.358.321.679.635.993.941a10.657,10.657,0,0,0,1.065.5,4.593,4.593,0,0,0,.694.211,5.2,5.2,0,0,0,.766.19c1.066.234,2.394.321,3.883.606.19.036.372.073.569.109l.139.022.073.015.036.007.124.044.27.087a4.885,4.885,0,0,1,.57.205c.226.109.445.219.671.328A10,10,0,0,1,98.2,12.241c1.241,1.328,2.262,2.8,3.686,3.466a5.488,5.488,0,0,0,2.372.5,4.982,4.982,0,0,0,.6-.051l.4-.051.489-.037a3.132,3.132,0,0,1,1.226.212,2.178,2.178,0,0,1,.554.292,2.927,2.927,0,0,1,.46.343l.365.365.088.095.044.043.022.022a.082.082,0,0,1-.015-.022s.124.161.124.168.109.175.109.175l.219.343c.073.154.154.336.227.5a5.368,5.368,0,0,1,.2.511l.124.445a8.01,8.01,0,0,1,.212.869,27.043,27.043,0,0,1,.438,3.437C110.617,29.524,111,34.874,111.3,39.508Zm-1.978,5.183a31.142,31.142,0,0,0-.176-5c-.481-4.627-.978-9.948-1.445-15.634a27.185,27.185,0,0,0-.386-3.138c-.052-.241-.1-.489-.161-.708l-.095-.336c-.029-.11-.066-.153-.088-.241l-.073-.233-.211-.336-.059-.1-.043-.051-.2-.205c-.066-.087-.11-.08-.161-.124s-.1-.087-.139-.08a.559.559,0,0,0-.292-.058l-.277.014-.379.044c-.2.015-.5.044-.723.051-.38.117-.788.263-1.255.416a5.056,5.056,0,0,1-2.927.219,2.269,2.269,0,0,1-.825-.4c-.161-.132-.234-.241-.2-.321s.153-.124.365-.132c.219.015.481,0,.781-.007a7.092,7.092,0,0,0,1.394-.226,6.534,6.534,0,0,1-.891-.387,8.678,8.678,0,0,1-2.474-2.044c-.642-.737-1.168-1.46-1.693-2.073a8.475,8.475,0,0,0-1.606-1.5c-.131-.073-.256-.146-.38-.226a3.659,3.659,0,0,0-.511-.227l-.262-.109-.044-.007L93.75,11.5c-.176-.044-.351-.1-.519-.139-1.365-.372-2.678-.576-3.861-.97a2.584,2.584,0,0,1-.248-.088c.482.6.883,1.131,1.234,1.584.861,1.168,1.306,1.846,1.182,1.963s-.8-.343-1.89-1.314c-1.095-.956-2.555-2.481-4.533-3.97C83.159,7.1,80.451,5.774,77.488,6.35l-.525.125c-.168.051-.343.138-.511.2a7.483,7.483,0,0,0-1.059.525c-.73.409-1.452.913-2.364,1.424l-.7.379-.657.292-.321.139a1.463,1.463,0,0,1-.2.08l-.19.066-.788.255a13.266,13.266,0,0,1-1.606.321c-.533.037-1.08.1-1.606.088-2.131-.015-4.043-.343-5.751-.423-.416.022-.854.022-1.248.051a5.018,5.018,0,0,0-1.044.219,2.365,2.365,0,0,0-.781.423l-.343.35a4.447,4.447,0,0,0-.35.438c-.46.621-.934,1.365-1.4,2.015-.489.671-.978,1.335-1.474,1.934-.985,1.2-1.949,2.255-2.788,3.219a37.829,37.829,0,0,0-3.7,4.693,5.672,5.672,0,0,0-.5.81q-.207.372-.372.613c-.212.328-.365.482-.445.452s-.08-.248-.015-.635c.029-.189.081-.423.146-.7a4.713,4.713,0,0,1,.307-.927,23.33,23.33,0,0,1,3.218-5.4c.03-.037.059-.08.088-.117C42.4,17.2,34.506,15.131,26.426,14.62a58.267,58.267,0,0,0-7.663,20.444,14.995,14.995,0,0,0,5.992,3.766c.679.255,1.365.423,2.058.686.672.248,1.3.518,1.891.781,1.167.54,2.2,1.022,3.072,1.4s1.577.62,2.1.788.81.292.8.373-.322.116-.869.1a10.43,10.43,0,0,1-2.314-.445c-.948-.285-2.043-.7-3.226-1.176-.591-.226-1.211-.474-1.846-.686S25.069,40.26,24.361,40a13.8,13.8,0,0,1-3.847-2,15.441,15.441,0,0,1-1.912-1.73,38.877,38.877,0,0,0-.306,6.175c.058,1.737.043,3.992,1.043,5.51,1.3,1.978,4.46,1.949,6.576,1.759,4.336-.38,8.46-1.708,12.7-2.569q-.11-.471-.219-.92l-.087-.35a1.771,1.771,0,0,1-.234.124,2.5,2.5,0,0,1-.431.117l-.094.022-.03.007-.058.007-.051.008-.219.021a9.243,9.243,0,0,1-1.81.044c-.628-.022-1.241-.1-1.869-.182-1.277-.183-2.386-.3-3.5-.358a20.968,20.968,0,0,1-2.934-.336,6.962,6.962,0,0,1-1.934-.656c-.4-.241-.613-.417-.576-.489s.3-.059.751.043a14.585,14.585,0,0,0,1.876.241c.8.051,1.759.066,2.861.066.548.007,1.131.014,1.745.058.635.044,1.218.132,1.853.2s1.234.175,1.8.2a9.139,9.139,0,0,0,1.613,0l.19-.029h.065c-.014,0,.037.022-.029.029l.007.015.022.007.1-.015a1.284,1.284,0,0,0,.335-.073.659.659,0,0,0,.343-.2.156.156,0,0,0,.037-.058c-.008-.088-.022-.183-.037-.27-.022-.154-.036-.314-.058-.467-.007-.154-.007-.3-.015-.446a19.453,19.453,0,0,1,.745-5.846A30.332,30.332,0,0,1,39.958,34.2c.321-.766.526-1.16.606-1.131s.036.46-.131,1.277-.453,2.007-.716,3.533a20.512,20.512,0,0,0-.314,5.54,22.777,22.777,0,0,0,2.175,6.984c.57,1.285,1.212,2.613,1.781,4.095.314.715.54,1.511.8,2.3a20.617,20.617,0,0,1,.562,2.467c.6,3.409.518,6.883,2.869,9.437a11.013,11.013,0,0,0,4.2,2.905,57.293,57.293,0,0,0,5.54,1.832l.277.095a5.122,5.122,0,0,1,.037-.591,11.928,11.928,0,0,1,.474-1.934c.1-.3.168-.592.278-.869s.219-.54.328-.8.212-.5.314-.738.248-.445.358-.657c.24-.416.459-.788.664-1.094.233-.285.43-.526.606-.723.35-.379.569-.569.642-.525s-.022.328-.241.8q-.176.351-.438.832c-.131.329-.285.7-.452,1.11-.081.2-.19.408-.263.635s-.153.474-.234.729-.168.5-.255.767-.139.555-.212.839a12.417,12.417,0,0,0-.372,1.766,2.82,2.82,0,0,0,.022.8,1.173,1.173,0,0,0,.044.109l.664.263c.241.1.5.234.744.351a27.992,27.992,0,0,1,1.212-4.256c.584-1.328,1.058-2.058,1.182-2,.139.065-.08.9-.445,2.24-.27,1.168-.562,2.737-.876,4.569.4.227.8.453,1.175.686a1.277,1.277,0,0,0,.321-.241,10.561,10.561,0,0,0,1.2-1.766,28.789,28.789,0,0,0,1.722-3.693c.35-.905.482-1.642.664-1.613.146.022.358.642.183,1.832a13.044,13.044,0,0,1-1.5,4.08,8.2,8.2,0,0,1-1.5,1.985c-.022.022-.051.037-.073.059.759.489,1.5.985,2.248,1.445.431.284.876.533,1.321.8l.715.431c.183.117.358.2.526.292.051-2.379.394-4.715,2.394-6.343a.717.717,0,0,1,.642-.416c1.818-.058,4.912,1.066,5.138,3.263.1,1.014-.532,1.854-.744,2.817a9.324,9.324,0,0,0,.394,6.357,1.327,1.327,0,0,0,.752.234A2.366,2.366,0,0,0,77.9,85.1l.263-.146.131-.073.029-.021h.008l.022-.015.6-.46a5.357,5.357,0,0,0,.453-.423l.211-.2.2-.248a7.021,7.021,0,0,0,1.27-2.2,9.521,9.521,0,0,0,.592-2.518,12.963,12.963,0,0,0,.014-2.6,14.7,14.7,0,0,0-.431-2.533c-.1-.416-.226-.817-.357-1.211l-.051-.146-.008-.022v-.015l-.036-.08-.124-.307-.248-.613a10.462,10.462,0,0,0-2.788-3.634,28.924,28.924,0,0,0-3.825-2.6c-.657-.4-1.314-.8-1.941-1.211-.314-.212-.628-.424-.935-.628l-.445-.328-.226-.161-.161-.117-.095-.087a7.58,7.58,0,0,1-.8-.759l-.394-.438-.329-.431c-.431-.562-.788-1.109-1.146-1.613-.175-.241-.357-.474-.533-.708-.189-.2-.365-.423-.554-.606-.2-.168-.394-.365-.577-.5-.241-.168-.474-.329-.7-.489-1.846-1.263-3.408-2.4-4.707-3.285-2.591-1.773-3.993-2.824-3.9-2.97s1.664.635,4.431,2.167c.576.322,1.2.694,1.868,1.088l-.117-.117a4.665,4.665,0,0,1-.328-.4c-.416-.533-.84-1.088-1.277-1.65A19.542,19.542,0,0,1,59.8,50.084c-.35-.562-.686-1.109-1.007-1.627-.613-1.037-1.131-1.978-1.584-2.781-.942-1.577-1.452-2.6-1.314-2.693s.905.751,2.029,2.2c.548.744,1.161,1.656,1.832,2.678.336.5.686,1.022,1.051,1.562s.716,1.124,1.153,1.65c.409.547.811,1.08,1.2,1.591.095.124.2.284.278.365l.328.35c.212.234.424.46.628.686.693.752,1.292,1.474,1.854,2.058.08.044.153.1.233.139.285.19.519.4.789.606.248.219.467.467.708.7.211.249.423.5.635.759.4.511.788,1.044,1.189,1.533l.3.351c2.5-3.263,1.161-9.262-.087-12.861a2.874,2.874,0,0,1-.854-.131,5.15,5.15,0,0,1-1.533-.861,13.056,13.056,0,0,1-2.051-2.124c-1.153-1.445-2.065-2.927-2.963-4.139a3.86,3.86,0,0,0-.336-.408l-.372-.365c-.263-.256-.54-.5-.81-.737-.54-.468-1.088-.906-1.62-1.336a19.482,19.482,0,0,1-2.854-2.6,7.719,7.719,0,0,1-1.511-2.8,6.638,6.638,0,0,1-.248-1.241c-.022-.189-.044-.372-.066-.547v-.5a6.561,6.561,0,0,1,.1-1.387c.051-.307.1-.467.154-.467s.094.16.138.474.066.774.175,1.343a7.7,7.7,0,0,0,2.081,4.379,19.841,19.841,0,0,0,2.831,2.263c.562.4,1.146.817,1.745,1.285.3.24.606.481.9.744.16.146.321.285.481.423.117.117.314.336.438.489,1.051,1.292,1.971,2.672,3.1,3.985a11.266,11.266,0,0,0,1.818,1.774,3.194,3.194,0,0,0,.963.518.879.879,0,0,0,.693-.051l.905-.423.438.912q.909,1.883,1.869,3.883c.635,1.336,1.408,2.664,2.131,4.058,1.482,2.766,3.117,5.649,4.678,8.759.2.386.4.773.6,1.16.2.431.379.781.562,1.219.372.854.693,1.686,1.007,2.525.635,1.679,1.241,3.358,1.993,4.934a13.577,13.577,0,0,0,2.868,4.212,8.286,8.286,0,0,0,.949.8,6.073,6.073,0,0,0,.525.343l.263.161.11.073.014.007L89.4,78a6.949,6.949,0,0,0,1.211.474,6.462,6.462,0,0,0,1.124.226,1.5,1.5,0,0,0,.19,0,7.982,7.982,0,0,1-2.4-5.846c.124-3.627,2.116-7.466,5.933-6.882a5.794,5.794,0,0,0-.941-.723,5.265,5.265,0,0,0-1.591-.613,4.564,4.564,0,0,0-2.839.336,6.529,6.529,0,0,0-1.672,1.153c-.357.365-.576.569-.649.518s.014-.328.262-.8a5.046,5.046,0,0,1,1.65-1.634,5.115,5.115,0,0,1,3.438-.687,5.868,5.868,0,0,1,2,.679q.231.132.46.285c-.2-.832-.423-1.664-.649-2.482a5.718,5.718,0,0,0-2.19-1.394c-1.7-.591-2.905-.584-2.905-.788-.014-.124,1.19-.474,3.153-.044a7.216,7.216,0,0,1,1.467.533c-.182-.642-.365-1.292-.554-1.927-.555-1.919-1.095-3.8-1.584-5.649-.11-.467-.227-.927-.343-1.387l-.168-.686-.066-.292-.095-.328c-.248-.891-.489-1.759-.73-2.613-.124-.423-.219-.869-.365-1.263s-.3-.788-.445-1.175c-.284-.774-.569-1.54-.854-2.284-.065-.154-.131-.285-.2-.431a2.408,2.408,0,0,1-.248.292,3.752,3.752,0,0,1-1.292.839,10.419,10.419,0,0,1-2.489.613,19.886,19.886,0,0,1-2.16.161c-2.628.044-4.219-.2-4.219-.35,0-.2,1.613-.256,4.161-.519a15.265,15.265,0,0,0,4.247-.948,2.74,2.74,0,0,0,.891-.6,1.456,1.456,0,0,0,.138-.182,1.557,1.557,0,0,0,.088-.161l.051-.168-.029-.036c-.007,0-.007.007-.015.014l.015-.036c0-.073.015-.146.015-.219a8.241,8.241,0,0,0-1.015-2.416c-.1-.2-.212-.4-.314-.606a5.655,5.655,0,0,0-1.7.92c-.336.233-.752.533-1.11.73l-.27.153-.058.029-.022.007-.037.015-.065.036-.146.059c-.19.08-.38.16-.562.241a20.865,20.865,0,0,1-4.088,1.233,13.6,13.6,0,0,1-1.62.212c-.489.022-.912.014-1.248,0-.65-.088-1.014-.175-1.014-.256s.364-.146,1.029-.2l1.146-.19c.452-.116.963-.2,1.518-.379a25.837,25.837,0,0,0,3.831-1.431c.176-.08.358-.168.533-.248l.139-.066.066-.036.036-.015h.007l.249-.153c.357-.219.62-.431.985-.7a6.928,6.928,0,0,1,1.839-1.065c-.336-.6-.679-1.168-1.014-1.723a21.556,21.556,0,0,1-3.985.467c-1.387.044-2.584.073-3.577.176a15.464,15.464,0,0,0-2.292.408c-.532.132-.846.175-.875.11s.219-.234.729-.5a9.042,9.042,0,0,1,2.321-.781,30.91,30.91,0,0,1,3.628-.452,25.771,25.771,0,0,0,3.4-.489c-.182-.285-.358-.577-.54-.854a4.7,4.7,0,0,0-.971-.577,13.163,13.163,0,0,0-1.357-.511c-.453-.146-.964-.321-1.365-.423a6.816,6.816,0,0,0-2.533-.168,7.344,7.344,0,0,0-2.255.628,7.114,7.114,0,0,0-1.737,1.087c-1.964,1.657-2.131,3.489-2.365,3.4-.044-.008-.058-.117-.051-.321a3.085,3.085,0,0,1,.131-.869,6.173,6.173,0,0,1,1.7-2.854,7.5,7.5,0,0,1,1.876-1.365,8.041,8.041,0,0,1,2.547-.832,7.716,7.716,0,0,1,2.985.124c.533.132.949.27,1.445.431.19.058.387.124.577.19-.555-.8-1.088-1.577-1.577-2.277-.6-.833-1.153-1.592-1.649-2.27-1.985-2.723-3.073-4.255-2.934-4.372.124-.1,1.452,1.219,3.686,3.773.058.066.124.146.182.212a14.983,14.983,0,0,1-.737-2.518c-.175-1.1-.124-1.8.029-1.832.175-.044.431.62.818,1.627.394.978.978,2.336,1.686,3.818.532,1.065,1.043,2.058,1.467,2.9.16.2.306.394.467.6a67.926,67.926,0,0,1,4.583,6.853c.416.642.745,1.358,1.117,2.073s.737,1.452,1.117,2.2c.321.788.642,1.591.978,2.409q.252.614.5,1.248c.168.416.263.839.4,1.263.262.846.525,1.715.788,2.591l.1.328.1.387.175.657c.125.445.241.9.365,1.343.059.211.125.43.183.642l.022.015.051.029.014.007a1.069,1.069,0,0,0,.395.11,4.444,4.444,0,0,0,1.065-.022c.723-.088,1.4-.249,1.971-.365,1.138-.248,1.9-.351,1.941-.175.044.153-.576.532-1.678,1.007a10.99,10.99,0,0,1-2.051.649,4.726,4.726,0,0,1-1.329.11c.256.846.511,1.708.781,2.576a5.907,5.907,0,0,0,1.7-.255,10.722,10.722,0,0,0,2.292-.964,8.529,8.529,0,0,0,3.313-2.941,1.846,1.846,0,0,0,.161-.38,2.89,2.89,0,0,0,.109-.467c.03-.168.066-.335.088-.5l.036-.518a6.81,6.81,0,0,0,0-1.03,8.008,8.008,0,0,0-.087-1.029,23.735,23.735,0,0,0-.891-3.9,68.079,68.079,0,0,0-2.5-6.518c-.832-1.9-1.518-3.628-2.182-5.007-.664-1.409-1.139-2.642-1.657-3.62-.5-.978-.9-1.774-1.19-2.409-.583-1.255-.766-1.846-.635-1.927s.555.365,1.373,1.5c.408.569.912,1.306,1.525,2.248.628.926,1.219,2.145,1.985,3.539.789,1.416,1.533,3.037,2.438,4.934a61.216,61.216,0,0,1,2.766,6.642,25.025,25.025,0,0,1,1.044,4.248c.044.387.109.781.117,1.19a8.972,8.972,0,0,1,.014,1.262c-.014.212-.029.431-.036.65-.029.219-.073.438-.117.664a3.992,3.992,0,0,1-.153.693,3.893,3.893,0,0,1-.307.738,10.273,10.273,0,0,1-4.065,3.8c.292-.007.584-.014.876-.029a5.614,5.614,0,0,0,2.146-.5,4.323,4.323,0,0,0,1.591-1.277,6.056,6.056,0,0,0,.554-.912l.248-.482.19-.511.19-.511.131-.54c.088-.357.183-.715.27-1.058a21.981,21.981,0,0,0,.373-4.131,59.96,59.96,0,0,0-.635-7.2c-.124-1.08-.3-2.066-.438-2.992-.073-.468-.139-.913-.2-1.343-.087-.431-.167-.84-.248-1.241-.16-.788-.306-1.526-.438-2.2-.175-.664-.328-1.27-.474-1.817s-.248-1.066-.38-1.5-.255-.832-.365-1.168c-.4-1.379-.5-2.014-.357-2.08s.5.46,1.16,1.766c.161.329.343.708.548,1.132s.357.934.569,1.481c.2.555.409,1.161.65,1.825.2.679.386,1.423.6,2.226.1.4.212.818.322,1.255.087.438.182.891.277,1.358.19.942.409,1.956.576,3.029C108.88,41.384,109.142,42.961,109.318,44.691ZM89.056,121.626c1.088-.051,8.919-.876,6.613-3.678a1.019,1.019,0,0,1-.372-.329,5.461,5.461,0,0,1-1.555.752,12.505,12.505,0,0,1-4.248.438c-1.08-.073-1.729-.241-1.729-.409s.657-.314,1.693-.46a27.825,27.825,0,0,0,3.912-.744,4.662,4.662,0,0,0,1.744-.9,1.973,1.973,0,0,0,.387-.518,1.831,1.831,0,0,0-.3-1.489,7.722,7.722,0,0,0-2.087-1.569,1.065,1.065,0,0,1-.46-.592,1.02,1.02,0,0,1-.168-.89,7.435,7.435,0,0,0,.182-1.044,13.365,13.365,0,0,1-4.35,1.044,15.2,15.2,0,0,1-1.715.022c-.555-.051-1.087-.088-1.591-.153-.489-.117-.963-.219-1.409-.314a9.184,9.184,0,0,1-1.2-.424,5.826,5.826,0,0,1-1.576-.846c-.343-.241-.519-.409-.482-.489s.284-.051.686.058a14.148,14.148,0,0,0,1.679.46c.35.066.7.2,1.124.241l1.328.182c.474.037.971.044,1.482.073.518.044,1.043-.036,1.591-.043a16.7,16.7,0,0,0,3.846-.723c-3-2.153-2.905-6.737-3.131-10.32-.131-2.132-.942-8.788,2.518-9.007.847-.248,2.3-1.569,1.285-2.175a1.086,1.086,0,0,1-.227-.175,1.055,1.055,0,0,1-.219-.183,2.43,2.43,0,0,1-.365.095,3.6,3.6,0,0,1-.948.059,5.757,5.757,0,0,1-1.46-.292c-.8-.278-1.212-.6-1.161-.752.059-.168.562-.146,1.329-.1a12.913,12.913,0,0,0,1.3.007,2.193,2.193,0,0,0,1.219-.343c.073-.036.109-.124.153-.161.044-.08.11-.182.153-.262a1.178,1.178,0,0,0,.073-.5A.429.429,0,0,0,92.567,85l-.014-.014a1.692,1.692,0,0,0-.365-.161,1.076,1.076,0,0,1-.453-.146c-.518-.146-.876-.248-.868-.4,0-.073.124-.168.35-.241a5.5,5.5,0,0,1-.124-2.934,9.561,9.561,0,0,1-2.7-.854l-.248-.117-.168-.109-.343-.212a7.927,7.927,0,0,1-.664-.438,10.266,10.266,0,0,1-1.212-1.022,12.919,12.919,0,0,1-1.788-2.124,14.343,14.343,0,0,1,.008,2.8,11.8,11.8,0,0,1-.679,3.109,10.506,10.506,0,0,1-.767,1.649c.066,0,.139.008.2.008.138.022.284.051.423.073l.715.109c.489.08.942.146,1.358.175s.8.095,1.175.117c1.467.131,2.394.27,2.394.445s-.912.336-2.409.431c-.372.029-.788.029-1.24.029a11.883,11.883,0,0,1-1.416-.073c-.256-.022-.467-.036-.774-.073l-.35-.044-.321-.007a1.3,1.3,0,0,0-.832.307l-.073.087-.278.285a29,29,0,0,0,3.81.89c1.219.19,1.993.307,1.993.475-.008.146-.752.313-2.029.335a14.169,14.169,0,0,1-2.278-.175,12.553,12.553,0,0,1-1.35-.255c-.379-.117-.781-.234-1.19-.358l-.24.19-.081.058c0,.008-.029.022-.065.051a1.652,1.652,0,0,0,.576,1.11,13.374,13.374,0,0,0,2.336.9c2.226.547,4.2.693,4.2,1.065.014.3-1.927.715-4.379.153-.066,5.591-.037,14.481-5.9,17.16a10.618,10.618,0,0,0-.219,1.058,6.46,6.46,0,0,1-.459,1.423,15.471,15.471,0,0,0,3.174,1.38,41.9,41.9,0,0,0,5.365,1.394l1.664.3c.409.08.628.161.628.248s-.226.161-.635.226a8.325,8.325,0,0,1-1.752.088,20.8,20.8,0,0,1-5.656-1.088c-.431-.153-.854-.292-1.263-.452-.2-.08-.394-.168-.591-.248l-.292-.117-.19-.08-.131-.073c-.409-.241-.716-.489-1-.686-.132-.095-.263-.183-.38-.256a1.109,1.109,0,0,1-.314-.051,1.2,1.2,0,0,1-.445.124,2.546,2.546,0,0,0-2.306,3.036,2.863,2.863,0,0,0,1.328,1.3,9.972,9.972,0,0,0,1.679.635c.628.219,1.277.437,1.941.671a40.254,40.254,0,0,0,6.781,1.942,20.671,20.671,0,0,0,2.095.2c.518,0,.817.029.824.117s-.248.211-.751.357a8.882,8.882,0,0,1-2.248.19,25.244,25.244,0,0,1-7.109-1.649c-.657-.234-1.3-.468-1.927-.687a9.589,9.589,0,0,1-1.847-.8,4.463,4.463,0,0,1-.795-.592.929.929,0,0,1-.219.176c-3.839,2.394,8.422,5.371,9.481,5.576A34.445,34.445,0,0,0,89.056,121.626ZM79.824,66.842c-.132-.336-.256-.664-.387-.971-.153-.372-.358-.81-.518-1.167-.2-.38-.387-.767-.577-1.146-1.489-3.059-3.065-5.963-4.511-8.781-.065-.138-.131-.27-.2-.4a11.3,11.3,0,0,1-1.875,7.218l.189.124c.3.19.6.373.9.562.62.373,1.263.738,1.934,1.117a28.824,28.824,0,0,1,4.168,2.671A10.984,10.984,0,0,1,79.824,66.842ZM74.9,76.776c.548-1.562-1.693-2.431-3.08-2.54C69.992,75.768,69.89,78,69.912,80.213c.482.241.985.5,1.482.781a13.749,13.749,0,0,1,1.467.978l.693.6c.146.138.285.277.438.43a10.676,10.676,0,0,1,.073-3.226A18.45,18.45,0,0,1,74.9,76.776Z"/><path d="M108.486,17.415h.007C108.486,17.408,108.486,17.415,108.486,17.415Z"/><path d="M88.173,41.238v.015h-.007C88.166,41.246,88.173,41.246,88.173,41.238Z"/><path d="M88.13,41.267l.036-.014c-.015.029-.036.051-.036.022Z"/><path d="M74.262,9.591c.1.131-.161.555-.73,1.088a8.812,8.812,0,0,1-2.576,1.678,4.654,4.654,0,0,1-3.2.314c-.891-.306-1.1-.766-1.037-.89.081-.168.592.051,1.2.036a6.341,6.341,0,0,0,2.562-.6C72.467,10.357,74.036,9.3,74.262,9.591Z"/><path d="M63.664,61.645c1.175.015,1.891.146,1.9.314s-.7.351-1.825.555-2.671.445-4.306.89a16.671,16.671,0,0,0-2.233.781,10.354,10.354,0,0,0-1.657.927c-.876.591-1.387,1.168-1.533,1.044-.109-.088.08-.8.971-1.708a7.375,7.375,0,0,1,1.715-1.284,11.975,11.975,0,0,1,2.409-.949A17.021,17.021,0,0,1,63.664,61.645Z"/><path d="M62.431,14.934c.978.262,1.533.584,1.489.737-.081.372-2.482-.139-5.284.241a10.448,10.448,0,0,0-1.9.46,7.773,7.773,0,0,0-1.423.693c-.745.452-1.234.927-1.365.8-.11-.1.044-.694.825-1.475A5.469,5.469,0,0,1,56.3,15.328a8.037,8.037,0,0,1,2.16-.635A10.024,10.024,0,0,1,62.431,14.934Z"/><path d="M58.2,59.178c1.773-.175,3.233.278,3.167.592-.058.357-1.387.474-3.051.635-1.7.2-3.116.065-3.153-.27S56.482,59.375,58.2,59.178Z"/><path d="M52.468,31.531c1.745,3.46,3.657,6.051,3.365,6.284-.132.1-.767-.423-1.62-1.43a21.553,21.553,0,0,1-2.847-4.307,18.28,18.28,0,0,1-1.073-2.671,11.091,11.091,0,0,1-.452-2.321c-.117-1.379.124-2.168.277-2.168.182,0,.263.84.577,2.022a21.93,21.93,0,0,0,.671,2.1C51.673,29.816,52.038,30.662,52.468,31.531Z"/></g></svg>